<svg width="180" height="34" viewBox="0 0 180 34" fill="none" xmlns="http://www.w3.org/2000/svg">
<path fill-rule="evenodd" clip-rule="evenodd" d="M7.38685 3.40966C6.93418 3.81328 6.60369 4.53254 6.60369 5.92858V25.886C6.60369 25.886 6.60369 25.8862 5.63607 25.8862C4.66845 25.8862 4.66845 25.886 4.66845 25.886V5.92858C4.66845 4.26657 5.06103 2.89354 6.09748 1.96939C7.10844 1.06795 8.53177 0.778316 10.1464 0.778316H21.5962C21.5962 0.778316 21.5965 0.778316 21.5965 1.74401C21.5965 2.70969 21.5964 2.70969 21.5964 2.70969H10.1464C8.6968 2.70969 7.86499 2.98332 7.38685 3.40966ZM22.5642 1.74401C22.5642 2.27734 22.1308 2.70969 21.5964 2.70969L21.5965 1.74401L21.5962 0.778316C22.1306 0.778316 22.5642 1.21067 22.5642 1.74401ZM5.63607 26.6778C5.10166 26.6778 4.66845 26.4194 4.66845 25.886L5.63607 25.8862L6.60369 25.886C6.60369 26.4194 6.17047 26.6778 5.63607 26.6778Z" fill="#252525"/>
<path fill-rule="evenodd" clip-rule="evenodd" d="M28.6131 21.4037C29.1398 21.4037 29.5668 21.8439 29.5668 22.3868V28.6995C29.5668 28.71 29.5667 28.7205 29.5663 28.731C29.4902 31.1803 28.5482 32.5529 27.4418 33.2519C26.9181 33.5828 26.4045 33.7321 26.0242 33.7998C25.8328 33.8339 25.6706 33.8481 25.551 33.8536C25.491 33.8564 25.4412 33.857 25.4032 33.8567C25.3858 33.8566 25.3708 33.8563 25.3584 33.8559H3.92208C3.88752 33.8559 3.85298 33.854 3.81863 33.8501L3.92208 32.8728C3.81863 33.8501 3.81759 33.85 3.81759 33.85L3.81649 33.8499L3.81406 33.8496L3.80837 33.8489L3.79367 33.847C3.78242 33.8456 3.76827 33.8436 3.75143 33.8411C3.71777 33.836 3.67317 33.8287 3.61917 33.8183C3.51145 33.7975 3.36474 33.7643 3.19181 33.7124C2.84902 33.6096 2.38551 33.4282 1.9155 33.111C0.934696 32.4491 0 31.237 0 29.2003C0 27.1578 0.941809 25.9744 1.94713 25.3525C2.42451 25.0572 2.8938 24.9003 3.23884 24.8162C3.41314 24.7737 3.56088 24.7486 3.66926 24.7338C3.7236 24.7264 3.76849 24.7215 3.80238 24.7183C3.81934 24.7167 3.83358 24.7155 3.84492 24.7147L3.85976 24.7137L3.86551 24.7133L3.86796 24.7131L3.86908 24.7131C3.86908 24.7131 3.87012 24.713 3.92208 25.6947L3.87012 24.713C3.88743 24.7121 3.90475 24.7116 3.92208 24.7116H22.9463C23.473 24.7116 23.9 25.1517 23.9 25.6947C23.9 26.2356 23.4763 26.6745 22.9523 26.6778C22.9523 26.6778 22.9479 26.6779 22.9433 26.6781C22.9314 26.6785 22.9093 26.6795 22.8785 26.6819C22.8166 26.6867 22.7215 26.6968 22.6048 26.7179C22.367 26.7608 22.0634 26.8448 21.7706 27.0033C21.4825 27.1593 21.2164 27.3804 21.0193 27.7005C20.8246 28.0167 20.6619 28.4863 20.6619 29.2003C20.6619 30.5611 21.2537 31.1734 21.8027 31.4989C22.1021 31.6764 22.4105 31.7773 22.6497 31.8328C22.7674 31.8601 22.8632 31.8752 22.9255 31.8832C22.95 31.8864 22.9691 31.8884 22.982 31.8896H25.3749C25.3878 31.8896 25.4007 31.8899 25.4136 31.8904L25.4164 31.8905C25.4239 31.8905 25.4409 31.8904 25.466 31.8893C25.5166 31.887 25.5979 31.8803 25.6996 31.8622C25.9054 31.8256 26.176 31.7454 26.445 31.5755C26.9227 31.2737 27.5973 30.5628 27.6593 28.6833V22.3868C27.6593 21.8439 28.0863 21.4037 28.6131 21.4037ZM19.4772 31.8896C19.0446 31.2202 18.7543 30.3403 18.7543 29.2003C18.7543 28.1774 18.989 27.3426 19.3899 26.6778H3.9618C3.95144 26.679 3.93732 26.6806 3.91982 26.683C3.86587 26.6904 3.78171 26.7044 3.67772 26.7297C3.46621 26.7813 3.19342 26.8747 2.92872 27.0385C2.44988 27.3347 1.90754 27.9041 1.90754 29.2003C1.90754 30.5021 2.457 31.1263 2.96035 31.466C3.23242 31.6496 3.51099 31.7603 3.72476 31.8244C3.83011 31.856 3.9153 31.875 3.9699 31.8855C3.97796 31.8871 3.98532 31.8884 3.99194 31.8896H19.4772Z" fill="#252525"/>
<path fill-rule="evenodd" clip-rule="evenodd" d="M8.94785 21.9874C8.94785 21.4501 9.37241 21.0145 9.89613 21.0145H18.1145C18.6383 21.0145 19.0628 21.4501 19.0628 21.9874C19.0628 22.5247 18.6383 22.9603 18.1145 22.9603H9.89613C9.37241 22.9603 8.94785 22.5247 8.94785 21.9874Z" fill="#252525"/>
<path fill-rule="evenodd" clip-rule="evenodd" d="M8.94785 18.0958C8.94785 17.5585 9.37241 17.123 9.89613 17.123H18.1145C18.6383 17.123 19.0628 17.5585 19.0628 18.0958C19.0628 18.6332 18.6383 19.0687 18.1145 19.0687H9.89613C9.37241 19.0687 8.94785 18.6332 8.94785 18.0958Z" fill="#252525"/>
<path fill-rule="evenodd" clip-rule="evenodd" d="M8.94785 14.2043C8.94785 13.667 9.37241 13.2314 9.89613 13.2314H18.1145C18.6383 13.2314 19.0628 13.667 19.0628 14.2043C19.0628 14.7416 18.6383 15.1772 18.1145 15.1772H9.89613C9.37241 15.1772 8.94785 14.7416 8.94785 14.2043Z" fill="#252525"/>
<path fill-rule="evenodd" clip-rule="evenodd" d="M8.94785 10.3127C8.94785 9.77537 9.37241 9.33979 9.89613 9.33979H18.1145C18.6383 9.33979 19.0628 9.77537 19.0628 10.3127C19.0628 10.85 18.6383 11.2856 18.1145 11.2856H9.89613C9.37241 11.2856 8.94785 10.85 8.94785 10.3127Z" fill="#252525"/>
<path fill-rule="evenodd" clip-rule="evenodd" d="M8.94785 6.42111C8.94785 5.88379 9.38081 5.44821 9.91489 5.44821H19.2629C19.797 5.44821 20.2299 5.88379 20.2299 6.42111C20.2299 6.95842 19.797 7.394 19.2629 7.394H9.91489C9.38081 7.394 8.94785 6.95842 8.94785 6.42111Z" fill="#252525"/>
<path fill-rule="evenodd" clip-rule="evenodd" d="M23.3163 11.2502V17.9366H33.8722V11.2502H23.3163ZM22.6765 9.33979C21.9699 9.33979 21.397 9.91001 21.397 10.6134V18.5735C21.397 19.2768 21.9699 19.8471 22.6765 19.8471H34.5119C35.2186 19.8471 35.7914 19.2768 35.7914 18.5735V10.6134C35.7914 9.91001 35.2186 9.33979 34.5119 9.33979H22.6765Z" fill="#252525"/>
<path fill-rule="evenodd" clip-rule="evenodd" d="M24.8872 5.13169C24.8875 5.14131 24.8876 5.15094 24.8876 5.16057V9.72895H22.9535V5.1695L22.9534 5.16063C22.9532 5.14657 22.9531 5.12846 22.9533 5.10657C22.9536 5.06281 22.9549 5.00375 22.9585 4.93153C22.9657 4.78746 22.9824 4.58888 23.0195 4.35354C23.0932 3.88711 23.2516 3.25158 23.5973 2.60556C23.9465 1.95289 24.4884 1.28822 25.3159 0.791664C26.1433 0.295179 27.2008 0 28.5304 0C31.2516 0 32.7546 1.23875 33.5164 2.58551C33.8793 3.22702 34.0565 3.85929 34.1443 4.32491C34.1886 4.55968 34.2112 4.75787 34.2228 4.90179C34.2287 4.97392 34.2318 5.03292 34.2334 5.07665C34.2342 5.09853 34.2347 5.11663 34.235 5.1307L34.2352 5.14874L34.2353 5.15544L34.2353 5.15943C34.2353 5.15943 34.2353 5.16057 33.2682 5.16057H34.2353V9.60205H32.3012V5.16549L32.3011 5.16242C32.3011 5.15964 32.3009 5.15563 32.3007 5.15044C32.3001 5.13282 32.2986 5.10186 32.2951 5.05948C32.2882 4.97438 32.2739 4.84541 32.2441 4.68758C32.1839 4.36802 32.0649 3.95337 31.8355 3.54796C31.4129 2.80088 30.547 1.94579 28.5304 1.94579C27.491 1.94579 26.7878 2.17407 26.3067 2.46278C25.8256 2.75141 25.5112 3.13366 25.3002 3.52791C25.0857 3.92881 24.98 4.34019 24.9296 4.65896C24.9048 4.81621 24.8944 4.94479 24.8901 5.02974C24.888 5.07202 24.8874 5.10293 24.8873 5.12052C24.8872 5.1293 24.8873 5.13649 24.8873 5.13649L24.8872 5.13425L24.8872 5.13169Z" fill="#252525"/>
<path fill-rule="evenodd" clip-rule="evenodd" d="M28.5942 12.8422C29.1314 12.8422 29.5668 13.2845 29.5668 13.8301V16.1351C29.5668 16.6807 29.1314 17.123 28.5942 17.123C28.0571 17.123 27.6216 16.6807 27.6216 16.1351V13.8301C27.6216 13.2845 28.0571 12.8422 28.5942 12.8422Z" fill="#252525"/>
<path d="M63.693 28.0527H59.6914L57.4469 19.3467C57.3638 19.0369 57.2202 18.3983 57.0161 17.4309C56.8196 16.456 56.7063 15.8023 56.676 15.4698C56.6307 15.8779 56.5173 16.5354 56.336 17.4423C56.1546 18.3416 56.0148 18.984 55.9165 19.3694L53.6833 28.0527H49.6931L45.4648 11.4796H48.9222L51.0421 20.5257C51.4124 22.1958 51.6807 23.643 51.8469 24.8673C51.8923 24.4366 51.9943 23.7715 52.153 22.8722C52.3193 21.9653 52.4742 21.2625 52.6178 20.7637L55.0323 11.4796H58.3538L60.7683 20.7637C60.8741 21.1794 61.0064 21.8142 61.1651 22.6682C61.3238 23.5221 61.4447 24.2552 61.5278 24.8673C61.6034 24.2779 61.7243 23.5448 61.8906 22.6682C62.0568 21.7839 62.208 21.0698 62.344 20.5257L64.4525 11.4796H67.91L63.693 28.0527Z" fill="#252525"/>
<path d="M81.4225 28.0527H77.965V20.6503C77.965 18.8215 77.2848 17.907 75.9245 17.907C74.9572 17.907 74.2581 18.2358 73.8274 18.8933C73.3966 19.5508 73.1812 20.6163 73.1812 22.09V28.0527H69.7237V10.414H73.1812V14.0075C73.1812 14.2871 73.1548 14.9446 73.1019 15.9799L73.0225 17.0002H73.2039C73.9747 15.7608 75.199 15.1411 76.8767 15.1411C78.3655 15.1411 79.4953 15.5416 80.2662 16.3427C81.037 17.1438 81.4225 18.2925 81.4225 19.7888V28.0527Z" fill="#252525"/>
<path d="M84.8346 12.103C84.8346 10.977 85.4618 10.414 86.7164 10.414C87.9709 10.414 88.5981 10.977 88.5981 12.103C88.5981 12.6396 88.4394 13.059 88.122 13.3613C87.8122 13.6561 87.3436 13.8034 86.7164 13.8034C85.4618 13.8034 84.8346 13.2366 84.8346 12.103ZM88.4394 28.0527H84.9819V15.3791H88.4394V28.0527Z" fill="#252525"/>
<path d="M100.92 24.2892C100.92 25.5891 100.467 26.5791 99.56 27.2592C98.6607 27.9394 97.3117 28.2795 95.5131 28.2795C94.5911 28.2795 93.8051 28.2152 93.1552 28.0867C92.5052 27.9658 91.8969 27.7844 91.3301 27.5426V24.686C91.9725 24.9882 92.6942 25.2414 93.4953 25.4455C94.3039 25.6495 95.0143 25.7515 95.6264 25.7515C96.8809 25.7515 97.5082 25.3888 97.5082 24.6633C97.5082 24.3912 97.4251 24.1721 97.2588 24.0058C97.0925 23.832 96.8054 23.6393 96.3973 23.4277C95.9892 23.2085 95.445 22.9553 94.7649 22.6682C93.79 22.2601 93.072 21.8822 92.6111 21.5346C92.1576 21.1869 91.8251 20.7902 91.6135 20.3443C91.4094 19.8908 91.3074 19.3354 91.3074 18.6779C91.3074 17.5519 91.742 16.6828 92.6111 16.0706C93.4877 15.4509 94.7271 15.1411 96.3292 15.1411C97.8558 15.1411 99.3408 15.4736 100.784 16.1386L99.7414 18.6325C99.1066 18.3605 98.5133 18.1375 97.9616 17.9637C97.4099 17.7899 96.8469 17.703 96.2726 17.703C95.2523 17.703 94.7422 17.9788 94.7422 18.5305C94.7422 18.8404 94.9047 19.1087 95.2297 19.3354C95.5622 19.5621 96.2839 19.8984 97.3948 20.3443C98.3848 20.7448 99.1103 21.1189 99.5713 21.4665C100.032 21.8142 100.372 22.2147 100.592 22.6682C100.811 23.1216 100.92 23.6619 100.92 24.2892Z" fill="#252525"/>
<path d="M108.958 25.5248C109.562 25.5248 110.288 25.3926 111.134 25.1281V27.7013C110.272 28.0867 109.214 28.2795 107.96 28.2795C106.577 28.2795 105.568 27.9318 104.933 27.2365C104.306 26.5337 103.992 25.4832 103.992 24.0851V17.9751H102.337V16.5127L104.242 15.3565L105.239 12.6812H107.45V15.3791H110.998V17.9751H107.45V24.0851C107.45 24.5764 107.586 24.9391 107.858 25.1734C108.138 25.4077 108.504 25.5248 108.958 25.5248Z" fill="#252525"/>
<path d="M117.165 28.0527H113.707V10.414H117.165V28.0527Z" fill="#252525"/>
<path d="M126.052 17.601C125.319 17.601 124.745 17.8353 124.329 18.3038C123.913 18.7648 123.675 19.4223 123.615 20.2763H128.467C128.452 19.4223 128.229 18.7648 127.798 18.3038C127.367 17.8353 126.785 17.601 126.052 17.601ZM126.54 28.2795C124.499 28.2795 122.905 27.7164 121.756 26.5904C120.607 25.4644 120.033 23.8698 120.033 21.8066C120.033 19.683 120.562 18.0431 121.62 16.8868C122.685 15.723 124.155 15.1411 126.029 15.1411C127.821 15.1411 129.215 15.6512 130.212 16.6714C131.21 17.6917 131.709 19.1011 131.709 20.8997V22.5775H123.536C123.573 23.5599 123.864 24.327 124.408 24.8787C124.953 25.4303 125.716 25.7062 126.698 25.7062C127.462 25.7062 128.183 25.6268 128.863 25.4681C129.544 25.3094 130.254 25.0563 130.995 24.7086V27.3839C130.39 27.6862 129.744 27.9091 129.056 28.0527C128.368 28.2039 127.53 28.2795 126.54 28.2795Z" fill="#252525"/>
<path d="M143.362 24.2892C143.362 25.5891 142.909 26.5791 142.002 27.2592C141.103 27.9394 139.754 28.2795 137.955 28.2795C137.033 28.2795 136.247 28.2152 135.597 28.0867C134.947 27.9658 134.339 27.7844 133.772 27.5426V24.686C134.414 24.9882 135.136 25.2414 135.937 25.4455C136.746 25.6495 137.456 25.7515 138.068 25.7515C139.323 25.7515 139.95 25.3888 139.95 24.6633C139.95 24.3912 139.867 24.1721 139.701 24.0058C139.534 23.832 139.247 23.6393 138.839 23.4277C138.431 23.2085 137.887 22.9553 137.207 22.6682C136.232 22.2601 135.514 21.8822 135.053 21.5346C134.599 21.1869 134.267 20.7902 134.055 20.3443C133.851 19.8908 133.749 19.3354 133.749 18.6779C133.749 17.5519 134.184 16.6828 135.053 16.0706C135.93 15.4509 137.169 15.1411 138.771 15.1411C140.298 15.1411 141.783 15.4736 143.226 16.1386L142.183 18.6325C141.548 18.3605 140.955 18.1375 140.403 17.9637C139.852 17.7899 139.289 17.703 138.714 17.703C137.694 17.703 137.184 17.9788 137.184 18.5305C137.184 18.8404 137.347 19.1087 137.672 19.3354C138.004 19.5621 138.726 19.8984 139.837 20.3443C140.827 20.7448 141.552 21.1189 142.013 21.4665C142.474 21.8142 142.814 22.2147 143.033 22.6682C143.253 23.1216 143.362 23.6619 143.362 24.2892Z" fill="#252525"/>
<path d="M154.109 28.0527L153.44 26.3297H153.349C152.767 27.0627 152.166 27.5728 151.547 27.86C150.935 28.1396 150.134 28.2795 149.144 28.2795C147.927 28.2795 146.967 27.9318 146.264 27.2365C145.569 26.5413 145.221 25.5513 145.221 24.2665C145.221 22.9213 145.69 21.9313 146.627 21.2965C147.572 20.6541 148.992 20.2989 150.889 20.2309L153.088 20.1629V19.6074C153.088 18.3227 152.431 17.6803 151.116 17.6803C150.103 17.6803 148.913 17.9864 147.545 18.5985L146.4 16.2633C147.859 15.5 149.476 15.1184 151.252 15.1184C152.952 15.1184 154.256 15.4887 155.163 16.2293C156.07 16.9699 156.523 18.096 156.523 19.6074V28.0527H154.109ZM153.088 22.1807L151.751 22.226C150.746 22.2563 149.997 22.4377 149.506 22.7702C149.015 23.1027 148.769 23.609 148.769 24.2892C148.769 25.2641 149.329 25.7515 150.447 25.7515C151.248 25.7515 151.887 25.521 152.363 25.06C152.847 24.599 153.088 23.9869 153.088 23.2236V22.1807Z" fill="#252525"/>
<path d="M167.1 17.9751H164.107V28.0527H160.65V17.9751H158.745V16.3087L160.65 15.3791V14.4496C160.65 13.0061 161.005 11.9519 161.715 11.2868C162.425 10.6218 163.563 10.2893 165.127 10.2893C166.321 10.2893 167.383 10.4669 168.313 10.8221L167.428 13.3613C166.733 13.1422 166.091 13.0326 165.501 13.0326C165.01 13.0326 164.655 13.1799 164.436 13.4747C164.217 13.7619 164.107 14.1322 164.107 14.5856V15.3791H167.1V17.9751Z" fill="#252525"/>
<path d="M174.343 17.601C173.61 17.601 173.036 17.8353 172.62 18.3038C172.205 18.7648 171.967 19.4223 171.906 20.2763H176.758C176.743 19.4223 176.52 18.7648 176.089 18.3038C175.658 17.8353 175.076 17.601 174.343 17.601ZM174.831 28.2795C172.79 28.2795 171.196 27.7164 170.047 26.5904C168.898 25.4644 168.324 23.8698 168.324 21.8066C168.324 19.683 168.853 18.0431 169.911 16.8868C170.977 15.723 172.446 15.1411 174.321 15.1411C176.112 15.1411 177.506 15.6512 178.504 16.6714C179.501 17.6917 180 19.1011 180 20.8997V22.5775H171.827C171.865 23.5599 172.156 24.327 172.7 24.8787C173.244 25.4303 174.007 25.7062 174.99 25.7062C175.753 25.7062 176.475 25.6268 177.155 25.4681C177.835 25.3094 178.545 25.0563 179.286 24.7086V27.3839C178.681 27.6862 178.035 27.9091 177.347 28.0527C176.66 28.2039 175.821 28.2795 174.831 28.2795Z" fill="#252525"/>
</svg>
